<?xml version="1.0" encoding="UTF-8" standalone="no"?>
<!-- Created with Inkscape (http://www.inkscape.org/) -->

<svg
   xmlns:dc="http://purl.org/dc/elements/1.1/"
   xmlns:cc="http://creativecommons.org/ns#"
   xmlns:rdf="http://www.w3.org/1999/02/22-rdf-syntax-ns#"
   xmlns:svg="http://www.w3.org/2000/svg"
   xmlns="http://www.w3.org/2000/svg"
   xmlns:xlink="http://www.w3.org/1999/xlink"
   xmlns:sodipodi="http://sodipodi.sourceforge.net/DTD/sodipodi-0.dtd"
   xmlns:inkscape="http://www.inkscape.org/namespaces/inkscape"
   width="200mm"
   height="200mm"
   viewBox="0 0 200 200"
   version="1.1"
   id="svg8"
   sodipodi:docname="ship.svg"
   inkscape:version="0.92.2 (30a58d1, 2017-08-07)">
  <defs
     id="defs2">
    <linearGradient
       inkscape:collect="always"
       id="linearGradient1377">
      <stop
         style="stop-color:#ffffff;stop-opacity:1"
         offset="0"
         id="stop1373" />
      <stop
         style="stop-color:#bbdaf7;stop-opacity:0"
         offset="1"
         id="stop1375" />
    </linearGradient>
    <linearGradient
       inkscape:collect="always"
       id="linearGradient1288">
      <stop
         style="stop-color:#6c7777;stop-opacity:0.095"
         offset="0"
         id="stop1282" />
      <stop
         id="stop1284"
         offset="0.34242076"
         style="stop-color:#4f5757;stop-opacity:0.36470589" />
      <stop
         style="stop-color:#0e0e0e;stop-opacity:1"
         offset="1"
         id="stop1286" />
    </linearGradient>
    <linearGradient
       id="linearGradient1089"
       inkscape:collect="always">
      <stop
         id="stop1085"
         offset="0"
         style="stop-color:#ffffff;stop-opacity:1" />
      <stop
         id="stop1087"
         offset="1"
         style="stop-color:#1a80dd;stop-opacity:0" />
    </linearGradient>
    <linearGradient
       inkscape:collect="always"
       id="linearGradient1047-8-2">
      <stop
         style="stop-color:#1133ab;stop-opacity:1"
         offset="0"
         id="stop1043" />
      <stop
         style="stop-color:#1a80dd;stop-opacity:1"
         offset="1"
         id="stop1045" />
    </linearGradient>
    <linearGradient
       id="linearGradient877"
       inkscape:collect="always">
      <stop
         id="stop873"
         offset="0"
         style="stop-color:#6c7777;stop-opacity:0.095" />
      <stop
         style="stop-color:#4f5757;stop-opacity:0.36470589"
         offset="0.78237647"
         id="stop881" />
      <stop
         id="stop875"
         offset="1"
         style="stop-color:#0e0e0e;stop-opacity:1" />
    </linearGradient>
    <linearGradient
       inkscape:collect="always"
       id="linearGradient829-9-2-6">
      <stop
         style="stop-color:#6c7777;stop-opacity:1"
         offset="0"
         id="stop825" />
      <stop
         style="stop-color:#a7a7a7;stop-opacity:1"
         offset="1"
         id="stop827" />
    </linearGradient>
    <radialGradient
       inkscape:collect="always"
       xlink:href="#linearGradient829-9-2-6"
       id="radialGradient831"
       cx="92.604164"
       cy="157.52678"
       fx="92.604164"
       fy="157.52678"
       r="74.461304"
       gradientUnits="userSpaceOnUse"
       gradientTransform="matrix(0.89189611,0,0,0.89189611,16.984789,54.755553)" />
    <radialGradient
       inkscape:collect="always"
       xlink:href="#linearGradient877"
       id="radialGradient879"
       gradientUnits="userSpaceOnUse"
       gradientTransform="matrix(0.7988033,0,0,0.83205095,25.605568,64.182763)"
       cx="92.604164"
       cy="157.52678"
       fx="92.604164"
       fy="157.52678"
       r="74.461304" />
    <radialGradient
       inkscape:collect="always"
       xlink:href="#linearGradient829-9-2-6"
       id="radialGradient879-1"
       gradientUnits="userSpaceOnUse"
       gradientTransform="matrix(0.77643424,0,0,0.80875083,27.677035,67.853151)"
       cx="92.604164"
       cy="157.52678"
       fx="92.604164"
       fy="157.52678"
       r="74.461304" />
    <radialGradient
       inkscape:collect="always"
       xlink:href="#linearGradient829-9-2-6"
       id="radialGradient990"
       cx="92.985985"
       cy="156.27196"
       fx="92.985985"
       fy="156.27196"
       r="31.920561"
       gradientUnits="userSpaceOnUse"
       gradientTransform="matrix(0.89189611,0,0,0.89189611,16.984789,54.755553)" />
    <radialGradient
       inkscape:collect="always"
       xlink:href="#linearGradient877"
       id="radialGradient1001"
       cx="92.986328"
       cy="156.27148"
       fx="92.986328"
       fy="156.27148"
       r="38.28125"
       gradientTransform="matrix(1.1361744,0,0,1.0018348,-5.7297601,37.575274)"
       gradientUnits="userSpaceOnUse" />
    <radialGradient
       inkscape:collect="always"
       xlink:href="#linearGradient1047-8-2"
       id="radialGradient1049"
       cx="92.985985"
       cy="155.99438"
       fx="92.985985"
       fy="155.99438"
       r="11.102803"
       gradientTransform="matrix(1.0722573,0,0,1.85583,0.21372391,-95.612715)"
       gradientUnits="userSpaceOnUse" />
    <radialGradient
       inkscape:collect="always"
       xlink:href="#linearGradient1089"
       id="radialGradient1049-7"
       cx="80.184647"
       cy="153.03845"
       fx="80.184647"
       fy="153.03845"
       r="11.102803"
       gradientTransform="matrix(2.1027182,1.5072595,-1.8094689,2.5243191,193.37741,-322.45045)"
       gradientUnits="userSpaceOnUse" />
    <radialGradient
       inkscape:collect="always"
       xlink:href="#linearGradient877"
       id="radialGradient1192"
       cx="91.372681"
       cy="233.45618"
       fx="91.372681"
       fy="233.45618"
       r="20.46051"
       gradientTransform="matrix(1.0128635,0.0110218,-0.00582474,0.53527269,7.3264629,134.09283)"
       gradientUnits="userSpaceOnUse" />
    <radialGradient
       inkscape:collect="always"
       xlink:href="#linearGradient829-9-2-6"
       id="radialGradient1202"
       cx="91.320557"
       cy="233.50583"
       fx="91.320557"
       fy="233.50583"
       r="12.907009"
       gradientTransform="matrix(1.0165698,0,0,0.9158718,5.9708659,43.834462)"
       gradientUnits="userSpaceOnUse" />
    <radialGradient
       inkscape:collect="always"
       xlink:href="#linearGradient829-9-2-6"
       id="radialGradient1216"
       cx="91.910393"
       cy="227.26051"
       fx="91.910393"
       fy="227.26051"
       r="15.578621"
       gradientTransform="matrix(1.1786591,0,0,0.38588618,-9.3717121,163.32251)"
       gradientUnits="userSpaceOnUse" />
    <radialGradient
       inkscape:collect="always"
       xlink:href="#linearGradient829-9-2-6"
       id="radialGradient1216-2"
       cx="91.910393"
       cy="227.26051"
       fx="91.910393"
       fy="227.26051"
       r="15.578621"
       gradientTransform="matrix(1.0156839,0,0,0.33252907,5.6073919,190.37854)"
       gradientUnits="userSpaceOnUse" />
    <linearGradient
       inkscape:collect="always"
       xlink:href="#linearGradient1288"
       id="linearGradient1290"
       x1="79.791252"
       y1="239.57768"
       x2="89.163551"
       y2="239.67581"
       gradientUnits="userSpaceOnUse"
       gradientTransform="matrix(1.3067109,0,0,1.3067109,-21.141008,-47.109531)" />
    <linearGradient
       gradientTransform="matrix(1.3067109,0,0,1.3067109,1.6053869,-47.10943)"
       inkscape:collect="always"
       xlink:href="#linearGradient1288"
       id="linearGradient1290-9"
       x1="79.791252"
       y1="239.57768"
       x2="89.163551"
       y2="239.67581"
       gradientUnits="userSpaceOnUse" />
    <linearGradient
       gradientTransform="matrix(1.3067109,0,0,1.3067109,-9.8333641,-47.220971)"
       inkscape:collect="always"
       xlink:href="#linearGradient1288"
       id="linearGradient1290-9-7"
       x1="79.791252"
       y1="239.57768"
       x2="89.163551"
       y2="239.67581"
       gradientUnits="userSpaceOnUse" />
    <radialGradient
       inkscape:collect="always"
       xlink:href="#linearGradient1377"
       id="radialGradient1381"
       gradientUnits="userSpaceOnUse"
       gradientTransform="matrix(0.92723302,-0.84229146,0.22724573,0.25016252,-27.731814,226.50542)"
       cx="66.474182"
       cy="158.26562"
       fx="66.474182"
       fy="158.26562"
       r="74.461304" />
    <radialGradient
       inkscape:collect="always"
       xlink:href="#linearGradient1377"
       id="radialGradient1001-1"
       cx="115.48101"
       cy="116.78175"
       fx="115.48101"
       fy="116.78175"
       r="38.28125"
       gradientTransform="matrix(1.1361744,0,0,1.0018348,-5.7297591,37.575279)"
       gradientUnits="userSpaceOnUse" />
    <radialGradient
       inkscape:collect="always"
       xlink:href="#linearGradient1377"
       id="radialGradient879-6"
       gradientUnits="userSpaceOnUse"
       gradientTransform="matrix(0.79880329,0,0,0.83205094,25.605568,64.182763)"
       cx="160.97749"
       cy="81.366135"
       fx="160.97749"
       fy="81.366135"
       r="74.461304" />
  </defs>
  <sodipodi:namedview
     id="base"
     pagecolor="#ffffff"
     bordercolor="#666666"
     borderopacity="1.0"
     inkscape:pageopacity="0.0"
     inkscape:pageshadow="2"
     inkscape:zoom="0.67402315"
     inkscape:cx="42.346495"
     inkscape:cy="19.272818"
     inkscape:document-units="mm"
     inkscape:current-layer="layer1"
     showgrid="false"
     inkscape:window-width="1366"
     inkscape:window-height="719"
     inkscape:window-x="0"
     inkscape:window-y="0"
     inkscape:window-maximized="1" />
  <metadata
     id="metadata5">
    <rdf:RDF>
      <cc:Work
         rdf:about="">
        <dc:format>image/svg+xml</dc:format>
        <dc:type
           rdf:resource="http://purl.org/dc/dcmitype/StillImage" />
        <dc:title></dc:title>
      </cc:Work>
    </rdf:RDF>
  </metadata>
  <g
     inkscape:label="Layer 1"
     inkscape:groupmode="layer"
     id="layer1"
     transform="translate(0,-97)">
    <path
       style="fill:url(#radialGradient1202);fill-opacity:1;fill-rule:nonzero;stroke:none;stroke-width:6.29837036;stroke-miterlimit:4;stroke-dasharray:none;stroke-opacity:1"
       d="m 85.824826,245.87454 c -0.07816,0 -0.861365,1.82802 -0.141036,3.81441 l 2.844626,7.84437 c 0.720333,1.9864 0.06288,3.81395 0.141037,3.81395 h 20.268127 c 0.0781,0 -0.57983,-1.82774 0.14104,-3.81395 l 2.84697,-7.84437 c 0.72086,-1.9862 -0.0629,-3.81441 -0.14103,-3.81441 z"
       id="rect1194"
       inkscape:connector-curvature="0"
       sodipodi:nodetypes="sssssssss" />
    <rect
       style="fill:url(#radialGradient1216);fill-opacity:1;fill-rule:nonzero;stroke:none;stroke-width:8.77647972;stroke-miterlimit:4;stroke-dasharray:none;stroke-opacity:1"
       id="rect1208"
       width="36.723766"
       height="12.023149"
       x="80.597435"
       y="245.00766"
       ry="0" />
    <path
       style="fill:url(#radialGradient831);fill-opacity:1;fill-rule:nonzero;stroke:none;stroke-width:0.23598082"
       d="m 99.578083,128.84155 a 66.411748,66.411748 0 0 0 -66.411553,66.41156 66.411748,66.411748 0 0 0 50.274059,64.33658 15.523699,8.0458202 0 0 1 15.240124,-6.53557 15.523699,8.0458202 0 0 1 15.357187,6.93241 66.411748,66.411748 0 0 0 51.95175,-64.73342 66.411748,66.411748 0 0 0 -66.411567,-66.41156 z"
       id="path815"
       inkscape:connector-curvature="0" />
    <path
       inkscape:connector-curvature="0"
       style="opacity:1;fill:url(#radialGradient1381);fill-opacity:1;fill-rule:nonzero;stroke:none;stroke-width:0.23598082"
       d="m 99.578083,128.84155 a 66.411748,66.411748 0 0 0 -66.411554,66.41156 66.411748,66.411748 0 0 0 50.274059,64.33658 15.523699,8.0458204 0 0 1 15.240125,-6.53556 15.523699,8.0458204 0 0 1 15.357187,6.9324 66.411748,66.411748 0 0 0 51.95174,-64.73342 66.411748,66.411748 0 0 0 -66.411557,-66.41156 z"
       id="path815-0" />
    <circle
       style="fill:url(#radialGradient879);fill-opacity:1;fill-rule:nonzero;stroke:none;stroke-width:0.18847877"
       id="path815-2"
       cx="99.578079"
       cy="195.25308"
       r="53.043312" />
    <circle
       style="fill:url(#radialGradient879-6);fill-opacity:1;fill-rule:nonzero;stroke:none;stroke-width:0.18847877"
       id="path815-2-3"
       cx="99.578079"
       cy="195.25308"
       r="53.043312" />
    <path
       style="fill:url(#radialGradient879-1);fill-opacity:1;fill-rule:nonzero;stroke:none;stroke-width:0.18320076"
       d="m 97.57363,143.76596 a 51.557925,51.557925 0 0 0 -49.553675,51.48715 51.557925,51.557925 0 0 0 2.405901,15.37701 l 7.334764,-1.96529 c 4.255461,13.37777 14.720652,23.92327 28.046692,28.29006 v 7.92748 a 51.557925,51.557925 0 0 0 13.770771,1.9284 51.557925,51.557925 0 0 0 51.558137,-51.55766 51.557925,51.557925 0 0 0 -0.0387,-1.0868 c -2.80997,-0.58128 -5.41545,-1.11024 -7.71131,-1.56338 -1.36018,-23.08393 -20.36915,-41.23857 -43.808567,-41.23857 -0.602102,0 -1.20055,0.0154 -1.796585,0.0391 z"
       id="path815-2-9"
       inkscape:connector-curvature="0" />
    <path
       style="color:#000000;font-style:normal;font-variant:normal;font-weight:normal;font-stretch:normal;font-size:medium;line-height:normal;font-family:sans-serif;font-variant-ligatures:normal;font-variant-position:normal;font-variant-caps:normal;font-variant-numeric:normal;font-variant-alternates:normal;font-feature-settings:normal;text-indent:0;text-align:start;text-decoration:none;text-decoration-line:none;text-decoration-style:solid;text-decoration-color:#000000;letter-spacing:normal;word-spacing:normal;text-transform:none;writing-mode:lr-tb;direction:ltr;text-orientation:mixed;dominant-baseline:auto;baseline-shift:baseline;text-anchor:start;white-space:normal;shape-padding:0;clip-rule:nonzero;display:inline;overflow:visible;visibility:visible;opacity:1;isolation:auto;mix-blend-mode:normal;color-interpolation:sRGB;color-interpolation-filters:linearRGB;solid-color:#000000;solid-opacity:1;vector-effect:none;fill:url(#radialGradient1001);fill-opacity:1;fill-rule:nonzero;stroke:none;stroke-width:5.89952135;stroke-linecap:butt;stroke-linejoin:miter;stroke-miterlimit:4;stroke-dasharray:none;stroke-dashoffset:0;stroke-opacity:1;color-rendering:auto;image-rendering:auto;shape-rendering:auto;text-rendering:auto;enable-background:accumulate"
       d="m 99.918933,159.99058 c -18.821599,0 -34.142896,15.3213 -34.142897,34.1429 10e-7,18.8216 15.321298,34.1429 34.142897,34.1429 18.821607,1e-5 34.142907,-15.3213 34.142907,-34.1429 0,-18.8216 -15.3213,-34.1429 -34.142907,-34.1429 z m 0,5.9001 c 15.633257,0 28.242797,12.60954 28.242797,28.2428 0,15.63327 -12.60954,28.24455 -28.242797,28.24454 -15.633261,0 -28.242795,-12.61128 -28.242796,-28.24454 10e-7,-15.63326 12.609535,-28.2428 28.242796,-28.2428 z"
       id="path959"
       inkscape:connector-curvature="0" />
    <circle
       style="fill:url(#radialGradient990);fill-opacity:1;fill-rule:nonzero;stroke:none;stroke-width:5.38448381;stroke-miterlimit:4;stroke-dasharray:none;stroke-opacity:1"
       id="path959-2"
       cx="99.918625"
       cy="194.13393"
       r="28.469826" />
    <ellipse
       style="fill:#5e5e5e;fill-opacity:1;fill-rule:nonzero;stroke:none;stroke-width:5.89952087;stroke-miterlimit:4;stroke-dasharray:none;stroke-opacity:1"
       id="path1026"
       cx="99.918625"
       cy="193.88635"
       rx="12.873311"
       ry="22.280731" />
    <ellipse
       style="fill:url(#radialGradient1049);fill-opacity:1;fill-rule:nonzero;stroke:none;stroke-width:5.45579672;stroke-miterlimit:4;stroke-dasharray:none;stroke-opacity:1"
       id="path1026-1"
       cx="99.918625"
       cy="193.88635"
       rx="11.905063"
       ry="20.604916" />
    <ellipse
       style="fill:url(#radialGradient1049-7);fill-opacity:1;fill-rule:nonzero;stroke:none;stroke-width:5.11543989;stroke-miterlimit:4;stroke-dasharray:none;stroke-opacity:1"
       id="path1026-1-0"
       cx="99.918625"
       cy="193.88635"
       rx="11.162371"
       ry="19.319489" />
    <path
       inkscape:connector-curvature="0"
       style="fill:url(#radialGradient1192);fill-opacity:1;fill-rule:nonzero;stroke:none;stroke-width:0.23598082"
       d="m 117.02592,259.16106 a 18.74203,9.7138569 0 0 0 -0.28622,-0.65955 18.74203,9.7138569 0 0 0 -0.59042,-0.92134 18.74203,9.7138569 0 0 0 -0.76555,-0.88631 18.74203,9.7138569 0 0 0 -0.93194,-0.84254 18.74203,9.7138569 0 0 0 -1.09003,-0.78951 18.74203,9.7138569 0 0 0 -1.23613,-0.72961 18.74203,9.7138569 0 0 0 -1.37072,-0.66186 18.74203,9.7138569 0 0 0 -1.49147,-0.58764 18.74203,9.7138569 0 0 0 -1.59703,-0.50745 18.74203,9.7138569 0 0 0 -1.68735,-0.42265 18.74203,9.7138569 0 0 0 -1.75971,-0.33276 18.74203,9.7138569 0 0 0 -1.81503,-0.24013 18.74203,9.7138569 0 0 0 -1.85236,-0.14519 18.74203,9.7138569 0 0 0 -1.871246,-0.0484 18.74203,9.7138569 0 0 0 -1.325549,0.0244 18.74203,9.7138569 0 0 0 -1.859732,0.11661 18.74203,9.7138569 0 0 0 -1.827932,0.21294 18.74203,9.7138569 0 0 0 -1.778151,0.30603 18.74203,9.7138569 0 0 0 -1.709938,0.39683 18.74203,9.7138569 0 0 0 -1.625134,0.48303 18.74203,9.7138569 0 0 0 -1.523737,0.56461 18.74203,9.7138569 0 0 0 -1.407588,0.6411 18.74203,9.7138569 0 0 0 -1.276694,0.71025 18.74203,9.7138569 0 0 0 -1.133813,0.77293 18.74203,9.7138569 0 0 0 -0.979413,0.82778 18.74203,9.7138569 0 0 0 -0.814872,0.87433 18.74203,9.7138569 0 0 0 -0.642494,0.91211 18.74203,9.7138569 0 0 0 -0.247043,0.50147 66.411748,66.411748 0 0 0 2.911966,0.85911 15.523699,8.0458204 0 0 1 15.240124,-6.53556 15.523699,8.0458204 0 0 1 15.357186,6.9324 66.411748,66.411748 0 0 0 2.98802,-0.82547 z"
       id="path1164" />
    <rect
       style="fill:url(#radialGradient1216-2);fill-opacity:1;fill-rule:nonzero;stroke:none;stroke-width:7.56294155;stroke-miterlimit:4;stroke-dasharray:none;stroke-opacity:1"
       id="rect1208-9"
       width="31.645914"
       height="10.360689"
       x="83.136353"
       y="260.76895"
       ry="0" />
    <path
       inkscape:connector-curvature="0"
       style="fill:url(#linearGradient1290);fill-opacity:1;fill-rule:nonzero;stroke:none;stroke-width:7.56294155;stroke-miterlimit:4;stroke-dasharray:none;stroke-opacity:1"
       d="m 85.899091,260.76899 -2.776,10.36054 h 8.912778 l -2.775325,-10.36054 z"
       id="rect1208-9-1" />
    <path
       inkscape:connector-curvature="0"
       style="fill:url(#linearGradient1290-9);fill-opacity:1;fill-rule:nonzero;stroke:none;stroke-width:7.56294155;stroke-miterlimit:4;stroke-dasharray:none;stroke-opacity:1"
       d="m 108.64548,260.76909 -2.776,10.36053 h 8.91278 l -2.77532,-10.36053 z"
       id="rect1208-9-1-4" />
    <path
       inkscape:connector-curvature="0"
       style="fill:url(#linearGradient1290-9-7);fill-opacity:1;fill-rule:nonzero;stroke:none;stroke-width:7.56294155;stroke-miterlimit:4;stroke-dasharray:none;stroke-opacity:1"
       d="m 97.206734,260.65756 -2.775997,10.36052 h 8.912773 l -2.77532,-10.36052 z"
       id="rect1208-9-1-4-0" />
    <path
       style="color:#000000;font-style:normal;font-variant:normal;font-weight:normal;font-stretch:normal;font-size:medium;line-height:normal;font-family:sans-serif;font-variant-ligatures:normal;font-variant-position:normal;font-variant-caps:normal;font-variant-numeric:normal;font-variant-alternates:normal;font-feature-settings:normal;text-indent:0;text-align:start;text-decoration:none;text-decoration-line:none;text-decoration-style:solid;text-decoration-color:#000000;letter-spacing:normal;word-spacing:normal;text-transform:none;writing-mode:lr-tb;direction:ltr;text-orientation:mixed;dominant-baseline:auto;baseline-shift:baseline;text-anchor:start;white-space:normal;shape-padding:0;clip-rule:nonzero;display:inline;overflow:visible;visibility:visible;opacity:1;isolation:auto;mix-blend-mode:normal;color-interpolation:sRGB;color-interpolation-filters:linearRGB;solid-color:#000000;solid-opacity:1;vector-effect:none;fill:url(#radialGradient1001-1);fill-opacity:1;fill-rule:nonzero;stroke:none;stroke-width:5.89952135;stroke-linecap:butt;stroke-linejoin:miter;stroke-miterlimit:4;stroke-dasharray:none;stroke-dashoffset:0;stroke-opacity:1;color-rendering:auto;image-rendering:auto;shape-rendering:auto;text-rendering:auto;enable-background:accumulate"
       d="m 99.918933,159.99058 c -18.821599,0 -34.142896,15.3213 -34.142897,34.1429 10e-7,18.8216 15.321298,34.1429 34.142897,34.1429 18.821607,1e-5 34.142907,-15.3213 34.142907,-34.1429 0,-18.8216 -15.3213,-34.1429 -34.142907,-34.1429 z m 0,5.9001 c 15.633257,0 28.242797,12.60954 28.242797,28.2428 0,15.63327 -12.60954,28.24455 -28.242797,28.24454 -15.633261,0 -28.242795,-12.61128 -28.242796,-28.24454 10e-7,-15.63326 12.609535,-28.2428 28.242796,-28.2428 z"
       id="path959-7"
       inkscape:connector-curvature="0" />
  </g>
</svg>
